0
SECTION
2
HEADER
9
$INSUNITS
70
4
9
$ACADVER
1
AC1014
9
$HANDSEED
5
FFFF
0
ENDSEC
0
SECTION
2
TABLES
0
TABLE
2
VPORT
5
8
100
AcDbSymbolTable
0
ENDTAB
0
TABLE
2
LTYPE
5
5
100
AcDbSymbolTable
0
LTYPE
5
14
100
AcDbSymbolTableRecord
100
AcDbLinetypeTableRecord
2
BYBLOCK
70
0
0
LTYPE
5
15
100
AcDbSymbolTableRecord
100
AcDbLinetypeTableRecord
2
BYLAYER
70
0
0
ENDTAB
0
TABLE
2
LAYER
5
2
100
AcDbSymbolTable
70
2
0
LAYER
5
50
100
AcDbSymbolTableRecord
100
AcDbLayerTableRecord
2
0
70
0
6
CONTINUOUS
0
ENDTAB
0
TABLE
2
STYLE
5
3
100
AcDbSymbolTable
70
1
0
STYLE
5
11
100
AcDbSymbolTableRecord
100
AcDbTextStyleTableRecord
2
STANDARD
70
0
0
ENDTAB
0
TABLE
2
VIEW
5
6
100
AcDbSymbolTable
70
0
0
ENDTAB
0
TABLE
2
UCS
5
7
100
AcDbSymbolTable
70
0
0
ENDTAB
0
TABLE
2
APPID
5
9
100
AcDbSymbolTable
70
2
0
APPID
5
12
100
AcDbSymbolTableRecord
100
AcDbRegAppTableRecord
2
ACAD
70
0
0
ENDTAB
0
TABLE
2
DIMSTYLE
5
A
100
AcDbSymbolTable
70
1
0
ENDTAB
0
TABLE
2
BLOCK_RECORD
5
1
100
AcDbSymbolTable
70
1
0
BLOCK_RECORD
5
1F
100
AcDbSymbolTableRecord
100
AcDbBlockTableRecord
2
*MODEL_SPACE
0
BLOCK_RECORD
5
1B
100
AcDbSymbolTableRecord
100
AcDbBlockTableRecord
2
*PAPER_SPACE
0
ENDTAB
0
ENDSEC
0
SECTION
2
BLOCKS
0
BLOCK
5
20
100
AcDbEntity
100
AcDbBlockBegin
2
*MODEL_SPACE
0
ENDBLK
5
21
100
AcDbEntity
100
AcDbBlockEnd
0
BLOCK
5
1C
100
AcDbEntity
100
AcDbBlockBegin
2
*PAPER_SPACE
0
ENDBLK
5
1D
100
AcDbEntity
100
AcDbBlockEnd
0
ENDSEC
0
SECTION
2
ENTITIES
0
LWPOLYLINE
5
100
100
AcDbEntity
8
0
100
AcDbPolyline
90
27
70
1
43
0.0
10
-27.999999999999957
20
60.500000000000028
42
0.19891236737965826
10
-29.414213562373057
20
59.914213562373114
10
-52.414213562373114
20
36.914213562373043
42
0.19891236737965304
10
-53.000000000000028
20
35.499999999999957
10
-53.000000000000028
20
9.4999999999999574
42
0.41421356237309409
10
-51.000000000000021
20
7.4999999999999627
10
-49.414213562373128
20
7.4999999999999725
42
-0.19891236737965509
10
-48.707106781186589
20
7.2071067811865213
10
-44.292893218813475
20
2.7928932188134086
42
0.19891236737965834
10
-43.585786437626922
20
2.499999999999964
10
-25.414213562373114
20
2.4999999999999587
42
0.19891236737965715
10
-24.707106781186567
20
2.7928932188134095
10
-20.29289321881344
20
7.2071067811865284
42
-0.1989123673796579
10
-19.585786437626894
20
7.4999999999999813
10
19.58578643762689
20
7.4999999999999947
42
-0.19891236737965753
10
20.292893218813436
20
7.2071067811865426
10
24.707106781186567
20
2.7928932188134103
42
0.19891236737965781
10
25.414213562373114
20
2.4999999999999583
10
43.585786437626936
20
2.4999999999999578
42
0.19891236737965745
10
44.292893218813482
20
2.7928932188134139
10
48.707106781186617
20
7.2071067811865532
42
-0.19891236737965776
10
49.414213562373163
20
7.5000000000000044
10
51.000000000000021
20
7.4999999999999574
42
0.41421356237309409
10
53.000000000000028
20
9.4999999999999574
10
53.000000000000028
20
35.499999999999957
42
0.19891236737965262
10
52.414213562373121
20
36.91421356237305
10
28.828427124746192
20
60.499999999999972
0
CIRCLE
5
101
100
AcDbEntity
8
0
100
AcDbCircle
10
-51.000000000000021
20
9.4999999999999645
30
0
40
1.1000000000000032
210
0
220
0
230
1
0
CIRCLE
5
102
100
AcDbEntity
8
0
100
AcDbCircle
10
-50.999999999999979
20
35.499999999999943
30
0
40
1.1000000000000032
210
0
220
0
230
1
0
CIRCLE
5
103
100
AcDbEntity
8
0
100
AcDbCircle
10
51.000000000000021
20
9.4999999999999645
30
0
40
1.1000000000000032
210
0
220
0
230
1
0
CIRCLE
5
104
100
AcDbEntity
8
0
100
AcDbCircle
10
50.999999999999979
20
35.499999999999943
30
0
40
1.1000000000000032
210
0
220
0
230
1
0
CIRCLE
5
105
100
AcDbEntity
8
0
100
AcDbCircle
10
24.25
20
48.350000000000009
30
0
40
1.6000000000000014
210
0
220
0
230
1
0
CIRCLE
5
106
100
AcDbEntity
8
0
100
AcDbCircle
10
-24.250000000000007
20
48.350000000000009
30
0
40
1.6000000000000014
210
0
220
0
230
1
0
CIRCLE
5
107
100
AcDbEntity
8
0
100
AcDbCircle
10
24.25
20
19.650000000000002
30
0
40
1.6000000000000014
210
0
220
0
230
1
0
CIRCLE
5
108
100
AcDbEntity
8
0
100
AcDbCircle
10
-24.250000000000007
20
19.650000000000009
30
0
40
1.6000000000000014
210
0
220
0
230
1
0
ENDSEC
0
SECTION
2
OBJECTS
0
DICTIONARY
5
C
100
AcDbDictionary
3
ACAD_GROUP
350
D
3
ACAD_MLINESTYLE
350
17
0
DICTIONARY
5
D
100
AcDbDictionary
0
DICTIONARY
5
1A
330
C
100
AcDbDictionary
0
DICTIONARY
5
17
100
AcDbDictionary
0
ENDSEC
0
EOF
